<?xml version="1.0" encoding="utf-8"?>
<!-- Generator: Adobe Illustrator 23.0.1, SVG Export Plug-In . SVG Version: 6.00 Build 0)  -->
<svg version="1.1" id="图层_1" xmlns="http://www.w3.org/2000/svg" xmlns:xlink="http://www.w3.org/1999/xlink" x="0px" y="0px"
	 viewBox="0 0 1000 1000" style="enable-background:new 0 0 1000 1000;" xml:space="preserve">
<style type="text/css">
	.st0{fill:#4A4FFF;}
</style>
<ellipse transform="matrix(0.7071 -0.7071 0.7071 0.7071 -212.4673 224.4418)" class="st0" cx="164.69" cy="368.69" rx="166.48" ry="9"/>
<ellipse transform="matrix(0.7071 -0.7071 0.7071 0.7071 -208.9051 501.1472)" class="st0" cx="500.49" cy="502.74" rx="309.13" ry="16.71"/>
<ellipse transform="matrix(0.7071 -0.7071 0.7071 0.7071 -377.9095 292.9705)" class="st0" cx="164.69" cy="602.66" rx="9" ry="166.48"/>
<ellipse transform="matrix(0.7071 -0.7071 0.7071 0.7071 -189.6024 777.9603)" class="st0" cx="844.28" cy="617.85" rx="148.46" ry="14.04"/>
<ellipse class="st0" cx="515.65" cy="719.65" rx="229.47" ry="18"/>
<ellipse transform="matrix(0.7071 -0.7071 0.7071 0.7071 -143.9389 389.8842)" class="st0" cx="398.66" cy="368.69" rx="9" ry="166.48"/>
<ellipse transform="matrix(0.7071 -0.7071 0.7071 0.7071 -38.378 707.7224)" class="st0" cx="835.11" cy="400.19" rx="9" ry="166.48"/>
</svg>
